<svg width="580" height="150" viewBox="0 0 580 150" fill="none" xmlns="http://www.w3.org/2000/svg">
<path d="M190.291 61.09C193.697 61.09 196.707 61.86 199.321 63.4C201.981 64.8933 204.034 67.0167 205.481 69.77C206.927 72.4767 207.651 75.65 207.651 79.29C207.651 82.9767 206.904 86.1733 205.411 88.88C203.964 91.5867 201.911 93.6867 199.251 95.18C196.591 96.6267 193.534 97.35 190.081 97.35C188.121 97.35 186.254 97.1633 184.481 96.79C182.707 96.37 181.401 95.95 180.561 95.53L180.491 102.25C180.397 105.143 180.351 107.36 180.351 108.9C180.351 110.02 179.861 110.93 178.881 111.63C177.901 112.33 176.664 112.68 175.171 112.68C173.584 112.68 172.347 112.283 171.461 111.49C170.574 110.697 170.177 109.693 170.271 108.48C170.457 106.473 170.574 104.233 170.621 101.76C170.667 99.2867 170.691 96.1833 170.691 92.45L170.761 84.19C170.854 80.0833 170.901 76.42 170.901 73.2C170.901 71.9867 170.784 71.0767 170.551 70.47C170.364 69.8167 170.061 69.2567 169.641 68.79C169.221 68.3233 168.917 67.95 168.731 67.67C168.544 67.3433 168.451 66.97 168.451 66.55C168.451 65.4767 169.057 64.4267 170.271 63.4C171.484 62.3733 172.721 61.86 173.981 61.86C174.681 61.86 175.311 62.0933 175.871 62.56C176.991 63.5867 177.901 64.73 178.601 65.99C179.674 64.59 181.191 63.4233 183.151 62.49C185.111 61.5567 187.491 61.09 190.291 61.09ZM188.821 89.58C191.574 89.58 193.697 88.67 195.191 86.85C196.731 85.03 197.501 82.44 197.501 79.08C197.501 75.9067 196.824 73.4567 195.471 71.73C194.117 69.9567 192.134 69.07 189.521 69.07C187.841 69.07 186.371 69.3967 185.111 70.05C183.851 70.7033 182.871 71.52 182.171 72.5C181.471 73.4333 181.121 74.32 181.121 75.16L180.981 87.55C181.214 87.9233 182.194 88.3667 183.921 88.88C185.647 89.3467 187.281 89.58 188.821 89.58ZM232.702 97.7C228.456 97.7 224.862 96.9067 221.922 95.32C219.029 93.7333 216.859 91.54 215.412 88.74C213.966 85.94 213.242 82.7667 213.242 79.22C213.242 75.6733 214.059 72.5233 215.692 69.77C217.372 66.97 219.636 64.8 222.482 63.26C225.376 61.72 228.596 60.95 232.142 60.95C235.316 60.95 238.209 61.58 240.822 62.84C243.482 64.1 245.559 65.92 247.052 68.3C248.592 70.6333 249.362 73.3867 249.362 76.56C249.362 78.5667 248.989 80.0133 248.242 80.9C247.542 81.74 246.329 82.16 244.602 82.16H221.992C221.992 83.28 222.389 84.4233 223.182 85.59C223.976 86.71 225.166 87.6667 226.752 88.46C228.339 89.2533 230.229 89.65 232.422 89.65C234.382 89.65 235.922 89.37 237.042 88.81C238.162 88.2033 239.329 87.3167 240.542 86.15C241.429 85.3567 242.339 84.96 243.272 84.96C244.346 84.96 245.349 85.38 246.282 86.22C247.216 87.0133 247.682 87.9233 247.682 88.95C247.682 89.79 247.402 90.6067 246.842 91.4C245.862 92.94 244.206 94.3867 241.872 95.74C239.539 97.0467 236.482 97.7 232.702 97.7ZM240.122 75.86C240.542 75.86 240.799 75.79 240.892 75.65C241.032 75.51 241.102 75.2533 241.102 74.88C241.102 73.06 240.216 71.5433 238.442 70.33C236.716 69.1167 234.569 68.51 232.002 68.51C229.949 68.51 228.152 68.9067 226.612 69.7C225.119 70.4933 223.976 71.4733 223.182 72.64C222.389 73.76 221.992 74.8333 221.992 75.86H240.122ZM291.412 61.79C295.892 61.79 299.135 63.3767 301.142 66.55C303.195 69.6767 304.222 73.9933 304.222 79.5C304.222 82.2067 304.198 84.2133 304.152 85.52L304.082 93.29C304.082 94.41 303.662 95.32 302.822 96.02C301.982 96.6733 300.862 97 299.462 97C298.015 97 296.802 96.65 295.822 95.95C294.888 95.25 294.422 94.27 294.422 93.01V79.5C294.422 75.7667 294.095 73.1067 293.442 71.52C292.835 69.9333 291.832 69.14 290.432 69.14C289.405 69.14 288.495 69.98 287.702 71.66C286.955 73.2933 286.558 75.72 286.512 78.94V83.7V93.01C286.512 95.5767 284.948 96.86 281.822 96.86C280.188 96.86 278.928 96.5333 278.042 95.88C277.155 95.18 276.712 94.2 276.712 92.94L276.782 78.94C276.782 75.6733 276.432 73.2933 275.732 71.8C275.078 70.26 274.052 69.49 272.652 69.49C271.765 69.49 270.855 70.12 269.922 71.38C269.035 72.5933 268.335 74.39 267.822 76.77C267.495 78.1233 267.332 79.8733 267.332 82.02L267.402 88.39V93.64C267.402 94.6667 266.935 95.4833 266.002 96.09C265.068 96.65 263.948 96.93 262.642 96.93C261.335 96.93 260.215 96.65 259.282 96.09C258.348 95.4833 257.882 94.6433 257.882 93.57V72.29C257.882 71.2167 257.812 70.4233 257.672 69.91C257.532 69.3967 257.228 68.9067 256.762 68.44C256.715 68.3933 256.575 68.2533 256.342 68.02C256.108 67.7867 255.922 67.5533 255.782 67.32C255.688 67.0867 255.642 66.83 255.642 66.55C255.642 65.3367 256.085 64.3567 256.972 63.61C257.905 62.8167 258.932 62.42 260.052 62.42C260.985 62.42 262.012 63.12 263.132 64.52C263.925 65.5467 264.322 66.5733 264.322 67.6V68.02C265.068 66.2933 266.165 64.87 267.612 63.75C269.105 62.5833 270.972 62 273.212 62C275.452 62 277.202 62.4667 278.462 63.4C279.768 64.2867 280.772 65.5467 281.472 67.18C282.498 65.4533 283.852 64.1233 285.532 63.19C287.258 62.2567 289.218 61.79 291.412 61.79ZM319.548 60.46C317.681 60.46 316.141 59.8767 314.928 58.71C313.761 57.4967 313.178 55.98 313.178 54.16C313.178 52.34 313.761 50.87 314.928 49.75C316.141 48.5833 317.704 48 319.618 48C321.484 48 323.001 48.5833 324.168 49.75C325.334 50.87 325.918 52.3167 325.918 54.09C325.918 55.91 325.311 57.4267 324.098 58.64C322.931 59.8533 321.414 60.46 319.548 60.46ZM318.568 96.58C317.074 96.58 315.838 96.2067 314.858 95.46C313.878 94.7133 313.411 93.71 313.458 92.45L314.018 66.62C314.064 65.36 314.554 64.38 315.488 63.68C316.421 62.9333 317.634 62.56 319.128 62.56C320.668 62.56 321.928 62.9333 322.908 63.68C323.888 64.4267 324.354 65.4533 324.308 66.76L323.748 92.52C323.701 93.78 323.188 94.7833 322.208 95.53C321.274 96.23 320.061 96.58 318.568 96.58ZM353 97.7C349.313 97.7 346.047 96.9533 343.2 95.46C340.353 93.92 338.137 91.75 336.55 88.95C334.963 86.15 334.17 82.9067 334.17 79.22C334.17 75.5333 334.94 72.3133 336.48 69.56C338.02 66.8067 340.19 64.6833 342.99 63.19C345.79 61.6967 349.033 60.95 352.72 60.95C356.127 60.95 358.927 61.6733 361.12 63.12L361.89 46.32L362.1 41.42C362.147 40.3 362.637 39.4133 363.57 38.76C364.503 38.06 365.67 37.71 367.07 37.71C368.61 37.71 369.87 38.13 370.85 38.97C371.877 39.7633 372.32 40.7667 372.18 41.98C371.9 44.3133 371.62 49.4933 371.34 57.52C371.107 65.5 370.99 72.5467 370.99 78.66C370.99 83.84 371.107 86.9667 371.34 88.04C371.573 88.9267 372.18 90.1167 373.16 91.61C373.44 92.03 373.58 92.52 373.58 93.08C373.58 94.2467 373.02 95.32 371.9 96.3C370.827 97.2333 369.637 97.7 368.33 97.7C367.723 97.7 367.14 97.6067 366.58 97.42C366.02 97.28 365.577 97.07 365.25 96.79C363.85 95.7167 362.823 94.41 362.17 92.87C359.65 96.09 356.593 97.7 353 97.7ZM353.07 89.72C354.47 89.72 355.777 89.3467 356.99 88.6C358.203 87.8533 359.16 86.8967 359.86 85.73C360.607 84.5167 360.98 83.28 360.98 82.02V71.59C360.467 70.9367 359.393 70.3067 357.76 69.7C356.173 69.0467 354.657 68.72 353.21 68.72C350.41 68.72 348.217 69.6767 346.63 71.59C345.09 73.4567 344.32 76.0467 344.32 79.36C344.32 82.44 345.137 84.9367 346.77 86.85C348.45 88.7633 350.55 89.72 353.07 89.72ZM386.307 97C384.674 97 383.297 96.4633 382.177 95.39C381.104 94.27 380.567 92.87 380.567 91.19C380.567 89.4633 381.127 88.0167 382.247 86.85C383.414 85.6833 384.837 85.1 386.517 85.1C388.057 85.1 389.41 85.7067 390.577 86.92C391.744 88.1333 392.327 89.5567 392.327 91.19C392.327 92.7767 391.72 94.1533 390.507 95.32C389.34 96.44 387.94 97 386.307 97ZM406.72 96.37C405.227 96.37 404.037 95.9733 403.15 95.18C402.264 94.3867 401.82 93.3833 401.82 92.17L401.4 45.83C401.4 44.57 401.89 43.5433 402.87 42.75C403.85 41.9567 405.087 41.56 406.58 41.56C408.074 41.56 409.264 41.9567 410.15 42.75C411.084 43.4967 411.55 44.5 411.55 45.76L411.9 92.1C411.9 93.4067 411.387 94.4567 410.36 95.25C409.38 95.9967 408.167 96.37 406.72 96.37ZM427.897 60.46C426.031 60.46 424.491 59.8767 423.277 58.71C422.111 57.4967 421.527 55.98 421.527 54.16C421.527 52.34 422.111 50.87 423.277 49.75C424.491 48.5833 426.054 48 427.967 48C429.834 48 431.351 48.5833 432.517 49.75C433.684 50.87 434.267 52.3167 434.267 54.09C434.267 55.91 433.661 57.4267 432.447 58.64C431.281 59.8533 429.764 60.46 427.897 60.46ZM426.917 96.58C425.424 96.58 424.187 96.2067 423.207 95.46C422.227 94.7133 421.761 93.71 421.807 92.45L422.367 66.62C422.414 65.36 422.904 64.38 423.837 63.68C424.771 62.9333 425.984 62.56 427.477 62.56C429.017 62.56 430.277 62.9333 431.257 63.68C432.237 64.4267 432.704 65.4533 432.657 66.76L432.097 92.52C432.051 93.78 431.537 94.7833 430.557 95.53C429.624 96.23 428.411 96.58 426.917 96.58ZM463.45 61.23C467.556 61.23 470.73 62.6767 472.97 65.57C475.256 68.4167 476.4 72.64 476.4 78.24L476.33 94.06C476.33 95.04 475.84 95.7867 474.86 96.3C473.926 96.8133 472.76 97.07 471.36 97.07C470.006 97.07 468.793 96.8367 467.72 96.37C466.693 95.9033 466.18 95.25 466.18 94.41L466.25 78.17C466.25 74.7633 465.876 72.3833 465.13 71.03C464.383 69.6767 463.216 69 461.63 69C460.276 69 459.203 69.6067 458.41 70.82C457.616 72.0333 456.94 74.39 456.38 77.89C456.053 79.85 455.89 82.02 455.89 84.4L455.96 93.43C455.96 94.6433 455.493 95.5767 454.56 96.23C453.673 96.8367 452.46 97.14 450.92 97.14C449.333 97.14 448.073 96.8133 447.14 96.16C446.253 95.5067 445.81 94.5967 445.81 93.43C445.81 83.7233 445.67 76.1633 445.39 70.75C445.343 70.19 445.203 69.6767 444.97 69.21C444.783 68.6967 444.55 68.23 444.27 67.81C443.99 67.39 443.78 67.0633 443.64 66.83C443.36 66.3167 443.22 65.8033 443.22 65.29C443.22 64.31 443.78 63.4 444.9 62.56C446.066 61.6733 447.186 61.23 448.26 61.23C448.773 61.23 449.263 61.3933 449.73 61.72C450.243 62.0467 450.803 62.5833 451.41 63.33C451.923 63.9833 452.296 64.5667 452.53 65.08C452.763 65.5933 452.88 66.1767 452.88 66.83V67.46C453.72 65.6867 454.98 64.2167 456.66 63.05C458.386 61.8367 460.65 61.23 463.45 61.23ZM489.155 97.56C487.755 97.56 486.565 97.21 485.585 96.51C484.605 95.81 484.115 94.9467 484.115 93.92V49.26C484.115 48 484.582 46.9967 485.515 46.25C486.448 45.5033 487.638 45.13 489.085 45.13C490.578 45.13 491.792 45.5033 492.725 46.25C493.705 46.9967 494.195 48 494.195 49.26L494.055 68.86L498.185 66.2C502.758 63.3067 506.095 61.23 508.195 59.97C509.222 59.3633 510.272 59.13 511.345 59.27C512.278 59.41 513.095 59.97 513.795 60.95C514.495 61.8833 514.845 62.8867 514.845 63.96C514.845 64.7067 514.658 65.29 514.285 65.71C513.912 66.13 513.282 66.62 512.395 67.18L496.155 77.19L513.025 90.07C513.818 90.6767 514.215 91.5867 514.215 92.8C514.215 94.0133 513.748 95.0167 512.815 95.81C511.928 96.6033 510.878 97 509.665 97C508.498 97 507.332 96.58 506.165 95.74C504.532 94.5267 502.222 92.59 499.235 89.93C496.062 87.1767 494.335 85.6833 494.055 85.45V93.85C494.055 94.9233 493.588 95.81 492.655 96.51C491.722 97.21 490.555 97.56 489.155 97.56Z" fill="#8E05C2"/>
<g clip-path="url(#clip0_424_25)">
<path d="M116.25 43.75H97.5C94.0625 43.75 91.25 46.5625 91.25 50C91.25 53.4375 94.0625 56.25 97.5 56.25H116.25C126.562 56.25 135 64.6875 135 75C135 85.3125 126.562 93.75 116.25 93.75H97.5C94.0625 93.75 91.25 96.5625 91.25 100C91.25 103.438 94.0625 106.25 97.5 106.25H116.25C133.5 106.25 147.5 92.25 147.5 75C147.5 57.75 133.5 43.75 116.25 43.75ZM60 75C60 78.4375 62.8125 81.25 66.25 81.25H103.75C107.188 81.25 110 78.4375 110 75C110 71.5625 107.188 68.75 103.75 68.75H66.25C62.8125 68.75 60 71.5625 60 75ZM72.5 93.75H53.75C43.4375 93.75 35 85.3125 35 75C35 64.6875 43.4375 56.25 53.75 56.25H72.5C75.9375 56.25 78.75 53.4375 78.75 50C78.75 46.5625 75.9375 43.75 72.5 43.75H53.75C36.5 43.75 22.5 57.75 22.5 75C22.5 92.25 36.5 106.25 53.75 106.25H72.5C75.9375 106.25 78.75 103.438 78.75 100C78.75 96.5625 75.9375 93.75 72.5 93.75Z" fill="#8E05C2"/>
</g>
<rect x="5" y="12" width="539" height="126" rx="25" stroke="#700B97" stroke-width="10"/>
<defs>
<clipPath id="clip0_424_25">
<rect width="150" height="150" fill="white" transform="translate(10)"/>
</clipPath>
</defs>
</svg>
